# xmcd
#
# Track frame offsets:
#	150
#	21031
#	36285
#	61618
#	81567
#	105664
#	126530
#	165741
#	189051
#	207494
#
# Disc length: 3089 seconds
#
# Revision: 0
# Processed by: cddbd v1.4PL0 Copyright (c) Steve Scherf et al.
# Submitted via: dBpowerAMP V4.0
#
DISCID=840c0f0a
DTITLE=Clayton Miller Blues Band - Gotta Have Love
DYEAR=2002
DGENRE=Blues
TTITLE0=Find a Good Babe
TTITLE1=Ilustrated Man
TTITLE2=Friend
TTITLE3=She's a Burglar
TTITLE4=Gotta Have Love
TTITLE5=Big Boss Man
TTITLE6=Set Me Free
TTITLE7=Feels Like Rain
TTITLE8=Low Down Dirty Blues
TTITLE9=Lovin the Blues Medley
EXTD=
EXTT0=
EXTT1=
EXTT2=
EXTT3=
EXTT4=
EXTT5=
EXTT6=
EXTT7=
EXTT8=
EXTT9=
PLAYORDER=
